<?xml version="1.0" encoding="utf-8"?>
<!-- Generator: Adobe Illustrator 19.2.0, SVG Export Plug-In . SVG Version: 6.00 Build 0)  -->
<svg version="1.1" id="Layer_1" xmlns="http://www.w3.org/2000/svg" xmlns:xlink="http://www.w3.org/1999/xlink" x="0px" y="0px"
	 viewBox="0 0 960 960" style="enable-background:new 0 0 960 960;" xml:space="preserve">
<style type="text/css">
	.st0{fill:#D7F8F9;}
	.st1{fill:#6DBCDB;}
	.st2{fill:#B3E2E5;}
	.st3{fill:#93D6D8;}
	.st4{fill:#F2F2F2;}
</style>
<g>
	<polygon class="st0" points="792,390.1 131.4,390.1 280,225.3 643.4,225.3 	"/>
	<polygon class="st1" points="461.7,714.7 131.4,390.1 792,390.1 	"/>
	<polygon class="st2" points="333.7,390.1 461.7,714.7 587.9,390.1 	"/>
	<polygon class="st3" points="333.7,390.1 461.7,225.3 587.9,390.1 	"/>
	<polygon class="st2" points="333.7,390.1 280,225.3 131.4,390.1 	"/>
	<polyline class="st2" points="587.9,390.1 643.4,225.3 792,390.1 	"/>
	<polygon class="st4" points="657,699.1 642.8,734.7 629.8,701.7 593.7,685.6 627.2,672.4 642.8,636.6 657.5,671.9 691.8,685.6 	"/>
	<polygon class="st4" points="793.8,603.1 779.5,638.7 766.5,605.7 730.5,589.7 764,576.4 779.5,540.6 794.3,575.9 828.6,589.7 	"/>
	<polygon class="st4" points="211.1,613.7 197.4,647.8 184.9,616.2 150.4,600.8 182.5,588.1 197.4,553.7 211.6,587.6 244.5,600.8 	
		"/>
</g>
</svg>
